ffmpeg started on 2026-01-10 at 17:50:33
Report written to "D:\Convert\FFMetrics\reports\ssim_report-6.txt"
Log level: 32
Command line:
ffmpeg -hide_banner -nostdin -r 24000/1001 -i "F:\\Convert\\files\\JamClub_Ore_dake_Level_Up_na_Ken_Season_2_13_1080p_HEVC(70).mkv" -r 24000/1001 -i "F:\\Convert\\files\\JamClub_Ore_dake_Level_Up_na_Ken_Season_2_13_1080p.mp4" -lavfi "[0:v]settb=AVTB,setpts=PTS-STARTPTS,format=pix_fmts=yuv420p10le,fps=24000/1001,scale=1920:1080:flags=bicubic:out_range=limited:out_color_matrix=bt709:out_chroma_loc=left,setsar=1/1,setdar=(1920/1080)*(1/1),colorspace=format=yuv420p10:range=tv:primaries=bt709:trc=bt709:space=bt709:fast=0[main];[1:v]settb=AVTB,setpts=PTS-STARTPTS,format=pix_fmts=yuv420p,fps=24000/1001,scale=1920:1080:flags=bicubic:out_range=limited:out_color_matrix=bt709:out_chroma_loc=left,setsar=1.000,setdar=1.778[ref];[main][ref]ssim=eof_action=endall:stats_file='D\\:/Convert/FFMetrics/logs/ssim_logfile-6.txt'" -f null -
Input #0, matroska,webm, from 'F:\Convert\files\JamClub_Ore_dake_Level_Up_na_Ken_Season_2_13_1080p_HEVC(70).mkv':
  Metadata:
    COMPATIBLE_BRANDS: isomiso2avc1mp41
    MAJOR_BRAND     : isom
    MINOR_VERSION   : 512
    ENCODER         : Lavf61.7.100
  Duration: 00:24:02.33, start: -0.001000, bitrate: 1905 kb/s
  Stream #0:0: Video: hevc (Main 10), yuv420p10le(tv, bt709, progressive), 1920x1080 [SAR 1:1 DAR 16:9], 23.98 fps, 23.98 tbr, 1k tbn (default)
      Metadata:
        HANDLER_NAME    : VideoHandler
        VENDOR_ID       : [0][0][0][0]
        ENCODER         : Lavc61.19.100 libx265
        BPS             : 1706746
        DURATION        : 00:24:02.232708333
        NUMBER_OF_FRAMES: 34579
        NUMBER_OF_BYTES : 307690634
        _STATISTICS_WRITING_APP: mkvpropedit v94.0 ('Initiate') 64-bit
        _STATISTICS_WRITING_DATE_UTC: 2026-01-10 13:54:31
        _STATISTICS_TAGS: BPS DURATION NUMBER_OF_FRAMES NUMBER_OF_BYTES
  Stream #0:1(eng): Audio: aac (LC), 48000 Hz, stereo, fltp (default)
      Metadata:
        HANDLER_NAME    : SoundHandler
        VENDOR_ID       : [0][0][0][0]
        ENCODER         : Lavc61.19.100 aac
        BPS             : 194704
        DURATION        : 00:24:02.285000000
        NUMBER_OF_FRAMES: 67608
        NUMBER_OF_BYTES : 35102363
        _STATISTICS_WRITING_APP: mkvpropedit v94.0 ('Initiate') 64-bit
        _STATISTICS_WRITING_DATE_UTC: 2026-01-10 13:54:31
        _STATISTICS_TAGS: BPS DURATION NUMBER_OF_FRAMES NUMBER_OF_BYTES
Input #1, mov,mp4,m4a,3gp,3g2,mj2, from 'F:\Convert\files\JamClub_Ore_dake_Level_Up_na_Ken_Season_2_13_1080p.mp4':
  Metadata:
    major_brand     : isom
    minor_version   : 512
    compatible_brands: isomiso2avc1mp41
    encoder         : Lavf60.16.100
  Duration: 00:24:02.31, start: 0.000000, bitrate: 5143 kb/s
  Stream #1:0[0x1](und): Video: h264 (High) (avc1 / 0x31637661), yuv420p(progressive), 1920x1080 [SAR 1:1 DAR 16:9], 4945 kb/s, 23.98 fps, 23.98 tbr, 90k tbn (default)
      Metadata:
        handler_name    : VideoHandler
        vendor_id       : [0][0][0][0]
  Stream #1:1[0x2](eng): Audio: aac (LC) (mp4a / 0x6134706D), 48000 Hz, stereo, fltp, 191 kb/s (default)
      Metadata:
        handler_name    : SoundHandler
        vendor_id       : [0][0][0][0]
Stream mapping:
  Stream #0:0 (hevc) -> settb:default
  Stream #1:0 (h264) -> settb:default
  ssim:default -> Stream #0:0 (wrapped_avframe)
  Stream #0:1 -> #0:1 (aac (native) -> pcm_s16le (native))
Output #0, null, to 'pipe:':
  Metadata:
    COMPATIBLE_BRANDS: isomiso2avc1mp41
    MAJOR_BRAND     : isom
    MINOR_VERSION   : 512
    encoder         : Lavf61.7.100
  Stream #0:0: Video: wrapped_avframe, yuv420p10le(tv, bt709, progressive), 1920x1080 [SAR 1:1 DAR 16:9], q=2-31, 200 kb/s, 23.98 fps, 23.98 tbn
      Metadata:
        encoder         : Lavc61.19.100 wrapped_avframe
  Stream #0:1(eng): Audio: pcm_s16le, 48000 Hz, stereo, s16, 1536 kb/s (default)
      Metadata:
        HANDLER_NAME    : SoundHandler
        VENDOR_ID       : [0][0][0][0]
        _STATISTICS_TAGS: BPS DURATION NUMBER_OF_FRAMES NUMBER_OF_BYTES
        BPS             : 194704
        DURATION        : 00:24:02.285000000
        NUMBER_OF_FRAMES: 67608
        NUMBER_OF_BYTES : 35102363
        _STATISTICS_WRITING_APP: mkvpropedit v94.0 ('Initiate') 64-bit
        _STATISTICS_WRITING_DATE_UTC: 2026-01-10 13:54:31
        encoder         : Lavc61.19.100 pcm_s16le
frame=  107 fps=0.0 q=-0.0 size=N/A time=00:00:04.46 bitrate=N/A speed=8.67x    frame=  256 fps=250 q=-0.0 size=N/A time=00:00:10.67 bitrate=N/A speed=10.4x    frame=  432 fps=279 q=-0.0 size=N/A time=00:00:18.01 bitrate=N/A speed=11.6x    frame=  636 fps=309 q=-0.0 size=N/A time=00:00:26.52 bitrate=N/A speed=12.9x    frame=  834 fps=325 q=-0.0 size=N/A time=00:00:34.78 bitrate=N/A speed=13.5x    frame= 1033 fps=334 q=-0.0 size=N/A time=00:00:43.08 bitrate=N/A speed=13.9x    frame= 1234 fps=343 q=-0.0 size=N/A time=00:00:51.46 bitrate=N/A speed=14.3x    frame= 1438 fps=350 q=-0.0 size=N/A time=00:00:59.97 bitrate=N/A speed=14.6x    frame= 1650 fps=356 q=-0.0 size=N/A time=00:01:08.81 bitrate=N/A speed=14.8x    frame= 1827 fps=355 q=-0.0 size=N/A time=00:01:16.20 bitrate=N/A speed=14.8x    frame= 2022 fps=356 q=-0.0 size=N/A time=00:01:24.33 bitrate=N/A speed=14.9x    frame= 2196 fps=355 q=-0.0 size=N/A time=00:01:31.59 bitrate=N/A speed=14.8x    frame= 2380 fps=355 q=-0.0 size=N/A time=00:01:39.26 bitrate=N/A speed=14.8x    frame= 2566 fps=355 q=-0.0 size=N/A time=00:01:47.02 bitrate=N/A speed=14.8x    frame= 2736 fps=354 q=-0.0 size=N/A time=00:01:54.11 bitrate=N/A speed=14.8x    frame= 2881 fps=349 q=-0.0 size=N/A time=00:02:00.16 bitrate=N/A speed=14.6x    frame= 3041 fps=347 q=-0.0 size=N/A time=00:02:06.83 bitrate=N/A speed=14.5x    frame= 3213 fps=346 q=-0.0 size=N/A time=00:02:14.00 bitrate=N/A speed=14.4x    frame= 3385 fps=346 q=-0.0 size=N/A time=00:02:21.18 bitrate=N/A speed=14.4x    frame= 3550 fps=344 q=-0.0 size=N/A time=00:02:28.06 bitrate=N/A speed=14.4x    frame= 3702 fps=342 q=-0.0 size=N/A time=00:02:34.40 bitrate=N/A speed=14.3x    frame= 3848 fps=339 q=-0.0 size=N/A time=00:02:40.49 bitrate=N/A speed=14.1x    frame= 4014 fps=339 q=-0.0 size=N/A time=00:02:47.41 bitrate=N/A speed=14.1x    frame= 4205 fps=340 q=-0.0 size=N/A time=00:02:55.38 bitrate=N/A speed=14.2x    frame= 4413 fps=342 q=-0.0 size=N/A time=00:03:04.05 bitrate=N/A speed=14.3x    frame= 4624 fps=345 q=-0.0 size=N/A time=00:03:12.85 bitrate=N/A speed=14.4x    frame= 4836 fps=348 q=-0.0 size=N/A time=00:03:21.70 bitrate=N/A speed=14.5x    frame= 5033 fps=349 q=-0.0 size=N/A time=00:03:29.91 bitrate=N/A speed=14.5x    frame= 5235 fps=350 q=-0.0 size=N/A time=00:03:38.34 bitrate=N/A speed=14.6x    frame= 5430 fps=351 q=-0.0 size=N/A time=00:03:46.47 bitrate=N/A speed=14.6x    frame= 5592 fps=350 q=-0.0 size=N/A time=00:03:53.23 bitrate=N/A speed=14.6x    frame= 5772 fps=350 q=-0.0 size=N/A time=00:04:00.74 bitrate=N/A speed=14.6x    frame= 5975 fps=351 q=-0.0 size=N/A time=00:04:09.20 bitrate=N/A speed=14.6x    frame= 6174 fps=352 q=-0.0 size=N/A time=00:04:17.50 bitrate=N/A speed=14.7x    frame= 6385 fps=354 q=-0.0 size=N/A time=00:04:26.30 bitrate=N/A speed=14.8x    frame= 6597 fps=355 q=-0.0 size=N/A time=00:04:35.14 bitrate=N/A speed=14.8x    frame= 6805 fps=357 q=-0.0 size=N/A time=00:04:43.82 bitrate=N/A speed=14.9x    frame= 7018 fps=358 q=-0.0 size=N/A time=00:04:52.70 bitrate=N/A speed=14.9x    frame= 7215 fps=359 q=-0.0 size=N/A time=00:05:00.92 bitrate=N/A speed=  15x    frame= 7409 fps=359 q=-0.0 size=N/A time=00:05:09.01 bitrate=N/A speed=  15x    frame= 7608 fps=360 q=-0.0 size=N/A time=00:05:17.31 bitrate=N/A speed=  15x    frame= 7808 fps=361 q=-0.0 size=N/A time=00:05:25.65 bitrate=N/A speed=  15x    frame= 8027 fps=362 q=-0.0 size=N/A time=00:05:34.79 bitrate=N/A speed=15.1x    frame= 8224 fps=363 q=-0.0 size=N/A time=00:05:43.00 bitrate=N/A speed=15.1x    frame= 8437 fps=364 q=-0.0 size=N/A time=00:05:51.89 bitrate=N/A speed=15.2x    frame= 8649 fps=365 q=-0.0 size=N/A time=00:06:00.73 bitrate=N/A speed=15.2x    frame= 8864 fps=366 q=-0.0 size=N/A time=00:06:09.70 bitrate=N/A speed=15.3x    frame= 9071 fps=367 q=-0.0 size=N/A time=00:06:18.33 bitrate=N/A speed=15.3x    frame= 9264 fps=367 q=-0.0 size=N/A time=00:06:26.38 bitrate=N/A speed=15.3x    frame= 9455 fps=367 q=-0.0 size=N/A time=00:06:34.35 bitrate=N/A speed=15.3x    frame= 9664 fps=368 q=-0.0 size=N/A time=00:06:43.06 bitrate=N/A speed=15.3x    frame= 9870 fps=368 q=-0.0 size=N/A time=00:06:51.66 bitrate=N/A speed=15.4x    frame=10085 fps=369 q=-0.0 size=N/A time=00:07:00.62 bitrate=N/A speed=15.4x    frame=10298 fps=370 q=-0.0 size=N/A time=00:07:09.51 bitrate=N/A speed=15.4x    frame=10504 fps=371 q=-0.0 size=N/A time=00:07:18.10 bitrate=N/A speed=15.5x    frame=10728 fps=372 q=-0.0 size=N/A time=00:07:27.44 bitrate=N/A speed=15.5x    frame=10923 fps=372 q=-0.0 size=N/A time=00:07:35.58 bitrate=N/A speed=15.5x    frame=11108 fps=371 q=-0.0 size=N/A time=00:07:43.29 bitrate=N/A speed=15.5x    frame=11292 fps=371 q=-0.0 size=N/A time=00:07:50.97 bitrate=N/A speed=15.5x    frame=11484 fps=371 q=-0.0 size=N/A time=00:07:58.97 bitrate=N/A speed=15.5x    frame=11685 fps=372 q=-0.0 size=N/A time=00:08:07.36 bitrate=N/A speed=15.5x    frame=11847 fps=371 q=-0.0 size=N/A time=00:08:14.11 bitrate=N/A speed=15.5x    frame=12025 fps=370 q=-0.0 size=N/A time=00:08:21.54 bitrate=N/A speed=15.4x    frame=12223 fps=370 q=-0.0 size=N/A time=00:08:29.80 bitrate=N/A speed=15.5x    frame=12433 fps=371 q=-0.0 size=N/A time=00:08:38.55 bitrate=N/A speed=15.5x    frame=12632 fps=371 q=-0.0 size=N/A time=00:08:46.85 bitrate=N/A speed=15.5x    frame=12819 fps=371 q=-0.0 size=N/A time=00:08:54.65 bitrate=N/A speed=15.5x    frame=13014 fps=371 q=-0.0 size=N/A time=00:09:02.79 bitrate=N/A speed=15.5x    frame=13200 fps=371 q=-0.0 size=N/A time=00:09:10.55 bitrate=N/A speed=15.5x    frame=13370 fps=370 q=-0.0 size=N/A time=00:09:17.64 bitrate=N/A speed=15.5x    frame=13569 fps=371 q=-0.0 size=N/A time=00:09:25.94 bitrate=N/A speed=15.5x    frame=13784 fps=371 q=-0.0 size=N/A time=00:09:34.90 bitrate=N/A speed=15.5x    frame=13987 fps=372 q=-0.0 size=N/A time=00:09:43.37 bitrate=N/A speed=15.5x    frame=14189 fps=372 q=-0.0 size=N/A time=00:09:51.79 bitrate=N/A speed=15.5x    frame=14407 fps=373 q=-0.0 size=N/A time=00:10:00.89 bitrate=N/A speed=15.5x    frame=14606 fps=373 q=-0.0 size=N/A time=00:10:09.19 bitrate=N/A speed=15.5x    frame=14814 fps=373 q=-0.0 size=N/A time=00:10:17.86 bitrate=N/A speed=15.6x    frame=15003 fps=373 q=-0.0 size=N/A time=00:10:25.75 bitrate=N/A speed=15.6x    frame=15195 fps=373 q=-0.0 size=N/A time=00:10:33.75 bitrate=N/A speed=15.6x    frame=15403 fps=373 q=-0.0 size=N/A time=00:10:42.43 bitrate=N/A speed=15.6x    frame=15603 fps=374 q=-0.0 size=N/A time=00:10:50.77 bitrate=N/A speed=15.6x    frame=15779 fps=373 q=-0.0 size=N/A time=00:10:58.11 bitrate=N/A speed=15.6x    frame=15979 fps=373 q=-0.0 size=N/A time=00:11:06.45 bitrate=N/A speed=15.6x    frame=16178 fps=374 q=-0.0 size=N/A time=00:11:14.75 bitrate=N/A speed=15.6x    frame=16399 fps=374 q=-0.0 size=N/A time=00:11:23.97 bitrate=N/A speed=15.6x    frame=16595 fps=374 q=-0.0 size=N/A time=00:11:32.14 bitrate=N/A speed=15.6x    frame=16807 fps=375 q=-0.0 size=N/A time=00:11:40.99 bitrate=N/A speed=15.6x    frame=17003 fps=375 q=-0.0 size=N/A time=00:11:49.16 bitrate=N/A speed=15.6x    frame=17187 fps=375 q=-0.0 size=N/A time=00:11:56.84 bitrate=N/A speed=15.6x    frame=17367 fps=374 q=-0.0 size=N/A time=00:12:04.34 bitrate=N/A speed=15.6x    frame=17565 fps=374 q=-0.0 size=N/A time=00:12:12.60 bitrate=N/A speed=15.6x    frame=17742 fps=374 q=-0.0 size=N/A time=00:12:19.98 bitrate=N/A speed=15.6x    frame=17939 fps=374 q=-0.0 size=N/A time=00:12:28.20 bitrate=N/A speed=15.6x    frame=18129 fps=374 q=-0.0 size=N/A time=00:12:36.13 bitrate=N/A speed=15.6x    frame=18343 fps=374 q=-0.0 size=N/A time=00:12:45.05 bitrate=N/A speed=15.6x    frame=18550 fps=375 q=-0.0 size=N/A time=00:12:53.68 bitrate=N/A speed=15.6x    frame=18760 fps=375 q=-0.0 size=N/A time=00:13:02.44 bitrate=N/A speed=15.6x    frame=18978 fps=376 q=-0.0 size=N/A time=00:13:11.54 bitrate=N/A speed=15.7x    frame=19171 fps=376 q=-0.0 size=N/A time=00:13:19.59 bitrate=N/A speed=15.7x    frame=19371 fps=376 q=-0.0 size=N/A time=00:13:27.93 bitrate=N/A speed=15.7x    frame=19573 fps=376 q=-0.0 size=N/A time=00:13:36.35 bitrate=N/A speed=15.7x    frame=19744 fps=375 q=-0.0 size=N/A time=00:13:43.48 bitrate=N/A speed=15.7x    frame=19908 fps=375 q=-0.0 size=N/A time=00:13:50.32 bitrate=N/A speed=15.6x    frame=20107 fps=375 q=-0.0 size=N/A time=00:13:58.62 bitrate=N/A speed=15.6x    frame=20308 fps=375 q=-0.0 size=N/A time=00:14:07.01 bitrate=N/A speed=15.6x    frame=20502 fps=375 q=-0.0 size=N/A time=00:14:15.10 bitrate=N/A speed=15.6x    frame=20688 fps=375 q=-0.0 size=N/A time=00:14:22.86 bitrate=N/A speed=15.6x    frame=20883 fps=375 q=-0.0 size=N/A time=00:14:30.99 bitrate=N/A speed=15.6x    frame=21095 fps=375 q=-0.0 size=N/A time=00:14:39.83 bitrate=N/A speed=15.7x    frame=21303 fps=376 q=-0.0 size=N/A time=00:14:48.51 bitrate=N/A speed=15.7x    frame=21511 fps=376 q=-0.0 size=N/A time=00:14:57.18 bitrate=N/A speed=15.7x    frame=21720 fps=376 q=-0.0 size=N/A time=00:15:05.90 bitrate=N/A speed=15.7x    frame=21915 fps=376 q=-0.0 size=N/A time=00:15:14.03 bitrate=N/A speed=15.7x    frame=22122 fps=376 q=-0.0 size=N/A time=00:15:22.67 bitrate=N/A speed=15.7x    frame=22345 fps=377 q=-0.0 size=N/A time=00:15:31.97 bitrate=N/A speed=15.7x    frame=22565 fps=377 q=-0.0 size=N/A time=00:15:41.14 bitrate=N/A speed=15.7x    frame=22775 fps=377 q=-0.0 size=N/A time=00:15:49.90 bitrate=N/A speed=15.7x    frame=22985 fps=378 q=-0.0 size=N/A time=00:15:58.66 bitrate=N/A speed=15.8x    frame=23196 fps=378 q=-0.0 size=N/A time=00:16:07.46 bitrate=N/A speed=15.8x    frame=23421 fps=378 q=-0.0 size=N/A time=00:16:16.85 bitrate=N/A speed=15.8x    frame=23636 fps=379 q=-0.0 size=N/A time=00:16:25.81 bitrate=N/A speed=15.8x    frame=23831 fps=379 q=-0.0 size=N/A time=00:16:33.95 bitrate=N/A speed=15.8x    frame=24042 fps=379 q=-0.0 size=N/A time=00:16:42.75 bitrate=N/A speed=15.8x    frame=24242 fps=379 q=-0.0 size=N/A time=00:16:51.09 bitrate=N/A speed=15.8x    frame=24441 fps=379 q=-0.0 size=N/A time=00:16:59.39 bitrate=N/A speed=15.8x    frame=24647 fps=379 q=-0.0 size=N/A time=00:17:07.98 bitrate=N/A speed=15.8x    frame=24861 fps=380 q=-0.0 size=N/A time=00:17:16.91 bitrate=N/A speed=15.8x    frame=25076 fps=380 q=-0.0 size=N/A time=00:17:25.87 bitrate=N/A speed=15.8x    frame=25287 fps=380 q=-0.0 size=N/A time=00:17:34.67 bitrate=N/A speed=15.9x    frame=25488 fps=380 q=-0.0 size=N/A time=00:17:43.06 bitrate=N/A speed=15.9x    frame=25685 fps=380 q=-0.0 size=N/A time=00:17:51.27 bitrate=N/A speed=15.9x    frame=25891 fps=380 q=-0.0 size=N/A time=00:17:59.87 bitrate=N/A speed=15.9x    frame=26103 fps=381 q=-0.0 size=N/A time=00:18:08.71 bitrate=N/A speed=15.9x    frame=26307 fps=381 q=-0.0 size=N/A time=00:18:17.22 bitrate=N/A speed=15.9x    frame=26505 fps=381 q=-0.0 size=N/A time=00:18:25.47 bitrate=N/A speed=15.9x    frame=26702 fps=381 q=-0.0 size=N/A time=00:18:33.69 bitrate=N/A speed=15.9x    frame=26901 fps=381 q=-0.0 size=N/A time=00:18:41.99 bitrate=N/A speed=15.9x    frame=27118 fps=381 q=-0.0 size=N/A time=00:18:51.04 bitrate=N/A speed=15.9x    frame=27339 fps=381 q=-0.0 size=N/A time=00:19:00.26 bitrate=N/A speed=15.9x    frame=27557 fps=382 q=-0.0 size=N/A time=00:19:09.35 bitrate=N/A speed=15.9x    frame=27779 fps=382 q=-0.0 size=N/A time=00:19:18.61 bitrate=N/A speed=15.9x    frame=27992 fps=382 q=-0.0 size=N/A time=00:19:27.49 bitrate=N/A speed=15.9x    frame=28202 fps=382 q=-0.0 size=N/A time=00:19:36.25 bitrate=N/A speed=15.9x    frame=28417 fps=382 q=-0.0 size=N/A time=00:19:45.22 bitrate=N/A speed=  16x    frame=28626 fps=383 q=-0.0 size=N/A time=00:19:53.94 bitrate=N/A speed=  16x    frame=28801 fps=382 q=-0.0 size=N/A time=00:20:01.24 bitrate=N/A speed=15.9x    frame=28994 fps=382 q=-0.0 size=N/A time=00:20:09.29 bitrate=N/A speed=15.9x    frame=29175 fps=382 q=-0.0 size=N/A time=00:20:16.84 bitrate=N/A speed=15.9x    frame=29374 fps=382 q=-0.0 size=N/A time=00:20:25.14 bitrate=N/A speed=15.9x    frame=29534 fps=382 q=-0.0 size=N/A time=00:20:31.81 bitrate=N/A speed=15.9x    frame=29696 fps=381 q=-0.0 size=N/A time=00:20:38.57 bitrate=N/A speed=15.9x    frame=29854 fps=381 q=-0.0 size=N/A time=00:20:45.16 bitrate=N/A speed=15.9x    frame=30047 fps=381 q=-0.0 size=N/A time=00:20:53.21 bitrate=N/A speed=15.9x    frame=30251 fps=381 q=-0.0 size=N/A time=00:21:01.71 bitrate=N/A speed=15.9x    frame=30444 fps=381 q=-0.0 size=N/A time=00:21:09.76 bitrate=N/A speed=15.9x    frame=30655 fps=381 q=-0.0 size=N/A time=00:21:18.56 bitrate=N/A speed=15.9x    frame=30825 fps=381 q=-0.0 size=N/A time=00:21:25.65 bitrate=N/A speed=15.9x    frame=30992 fps=380 q=-0.0 size=N/A time=00:21:32.62 bitrate=N/A speed=15.9x    frame=31172 fps=380 q=-0.0 size=N/A time=00:21:40.13 bitrate=N/A speed=15.8x    frame=31348 fps=380 q=-0.0 size=N/A time=00:21:47.47 bitrate=N/A speed=15.8x    frame=31537 fps=380 q=-0.0 size=N/A time=00:21:55.35 bitrate=N/A speed=15.8x    frame=31742 fps=380 q=-0.0 size=N/A time=00:22:03.90 bitrate=N/A speed=15.8x    frame=31924 fps=380 q=-0.0 size=N/A time=00:22:11.49 bitrate=N/A speed=15.8x    frame=32106 fps=379 q=-0.0 size=N/A time=00:22:19.08 bitrate=N/A speed=15.8x    frame=32254 fps=379 q=-0.0 size=N/A time=00:22:25.26 bitrate=N/A speed=15.8x    frame=32409 fps=378 q=-0.0 size=N/A time=00:22:31.72 bitrate=N/A speed=15.8x    frame=32583 fps=378 q=-0.0 size=N/A time=00:22:38.98 bitrate=N/A speed=15.8x    frame=32741 fps=378 q=-0.0 size=N/A time=00:22:45.57 bitrate=N/A speed=15.8x    frame=32905 fps=377 q=-0.0 size=N/A time=00:22:52.41 bitrate=N/A speed=15.7x    frame=33028 fps=377 q=-0.0 size=N/A time=00:22:57.54 bitrate=N/A speed=15.7x    frame=33156 fps=376 q=-0.0 size=N/A time=00:23:02.92 bitrate=N/A speed=15.7x    frame=33286 fps=375 q=-0.0 size=N/A time=00:23:08.30 bitrate=N/A speed=15.6x    frame=33408 fps=374 q=-0.0 size=N/A time=00:23:13.39 bitrate=N/A speed=15.6x    frame=33572 fps=374 q=-0.0 size=N/A time=00:23:20.23 bitrate=N/A speed=15.6x    frame=33729 fps=374 q=-0.0 size=N/A time=00:23:26.78 bitrate=N/A speed=15.6x    frame=33844 fps=373 q=-0.0 size=N/A time=00:23:31.57 bitrate=N/A speed=15.5x    frame=33952 fps=372 q=-0.0 size=N/A time=00:23:36.08 bitrate=N/A speed=15.5x    frame=34095 fps=371 q=-0.0 size=N/A time=00:23:42.04 bitrate=N/A speed=15.5x    frame=34249 fps=371 q=-0.0 size=N/A time=00:23:48.46 bitrate=N/A speed=15.5x    frame=34411 fps=370 q=-0.0 size=N/A time=00:23:55.22 bitrate=N/A speed=15.5x    [Parsed_ssim_15 @ 0000022831d52780] SSIM Y:0.992948 (21.516808) U:0.993148 (21.642009) V:0.993260 (21.713363) All:0.993033 (21.569727)
[out#0/null @ 00000228260fa400] video:14858KiB audio:270432KiB subtitle:0KiB other streams:0KiB global headers:0KiB muxing overhead: unknown
frame=34579 fps=370 q=-0.0 Lsize=N/A time=00:24:02.23 bitrate=N/A speed=15.4x    
